<?xml version="1.0" encoding="UTF-8" standalone="no"?>
<!-- Generator: Adobe Illustrator 12.0.0, SVG Export Plug-In . SVG Version: 6.00 Build 51448)  -->

<svg
   xmlns:dc="http://purl.org/dc/elements/1.1/"
   xmlns:cc="http://creativecommons.org/ns#"
   xmlns:rdf="http://www.w3.org/1999/02/22-rdf-syntax-ns#"
   xmlns:svg="http://www.w3.org/2000/svg"
   xmlns="http://www.w3.org/2000/svg"
   xmlns:sodipodi="http://sodipodi.sourceforge.net/DTD/sodipodi-0.dtd"
   xmlns:inkscape="http://www.inkscape.org/namespaces/inkscape"
   version="1.0"
   id="Layer_1"
   width="157.27982"
   height="74.869675"
   viewBox="0 0 83.156509 33.775321"
   overflow="visible"
   enable-background="new 0 0 280.22 69.387"
   xml:space="preserve"
   sodipodi:version="0.32"
   inkscape:version="0.92.4 (5da689c313, 2019-01-14)"
   sodipodi:docname="GStreamer.svg"
   inkscape:output_extension="org.inkscape.output.svg.inkscape"
   style="overflow:visible"><metadata
   id="metadata30"><rdf:RDF><cc:Work
       rdf:about=""><dc:format>image/svg+xml</dc:format><dc:type
         rdf:resource="http://purl.org/dc/dcmitype/StillImage" /><dc:title></dc:title></cc:Work></rdf:RDF></metadata><defs
   id="defs28"><inkscape:perspective
     sodipodi:type="inkscape:persp3d"
     inkscape:vp_x="0 : 34.6935 : 1"
     inkscape:vp_y="0 : 999.99999 : 0"
     inkscape:vp_z="280.22 : 34.6935 : 1"
     inkscape:persp3d-origin="140.11 : 23.129 : 1"
     id="perspective32" /></defs><sodipodi:namedview
   inkscape:window-height="968"
   inkscape:window-width="1280"
   inkscape:pageshadow="2"
   inkscape:pageopacity="0.0"
   guidetolerance="10.0"
   gridtolerance="10.0"
   objecttolerance="10.0"
   borderopacity="1.0"
   bordercolor="#666666"
   pagecolor="#ffffff"
   id="base"
   showgrid="false"
   inkscape:zoom="1.050338"
   inkscape:cx="124.66173"
   inkscape:cy="8.8366786"
   inkscape:window-x="522"
   inkscape:window-y="60"
   inkscape:current-layer="Layer_1"
   fit-margin-top="0"
   fit-margin-left="0"
   fit-margin-right="0"
   fit-margin-bottom="0"
   inkscape:window-maximized="0" />
<g
   id="g3739"
   transform="translate(-7.930756,-7.9310293)"><path
     id="path21"
     d="m 52.403785,6.8681437 c -5.102843,0 -12.568899,-4.1575576 -19.845333,-4.1575576 -7.276433,0 -11.622671,4.1575576 -12.379276,4.7245402 -0.755663,0.5669825 -1.229249,2.7396297 1.039625,2.0783071 2.268874,-0.6613224 4.157558,-0.6613224 7.749076,-0.6613224 3.591519,0 12.190597,4.914163 20.884958,4.914163 8.694362,0 15.969852,-6.7085072 17.57646,-9.0717207 1.606607,-2.3632134 0.09434,-3.1188757 -1.133966,-2.5509498 -1.229248,0.5669826 -9.16606,4.7245402 -13.891544,4.7245402 z"
     style="fill:#ff3131;stroke-width:0.94339859"
     inkscape:connector-curvature="0" /><path
     id="path23"
     d="m 74.571765,19.813459 c -5.361334,0 -13.20475,-4.156614 -20.849109,-4.156614 -7.644359,0 -12.211351,4.156614 -13.005693,4.72454 -0.794341,0.567926 -1.291512,2.73963 1.091512,2.078307 2.383025,-0.661322 4.367936,-0.661322 8.140587,-0.661322 3.772651,0 12.807579,4.914163 21.940621,4.914163 9.133042,0 16.778344,-6.708507 18.466084,-9.070777 1.68774,-2.363214 0.09906,-3.119819 -1.191512,-2.551893 -1.290569,0.567925 -9.628326,4.723596 -14.59249,4.723596 z"
     style="fill:#319831;stroke-width:0.94339859"
     inkscape:connector-curvature="0" /><path
     id="path25"
     d="m 43.719801,34.098401 c -5.559448,0 -13.693431,-4.491521 -21.620809,-4.491521 -7.927379,0 -12.6641829,4.491521 -13.4877699,5.103787 -0.823587,0.612265 -1.3386826,2.959441 1.1320783,2.244345 2.4717046,-0.714153 4.5301996,-0.714153 8.4424736,-0.714153 3.912274,0 13.282109,5.307561 22.754775,5.307561 9.471722,0 17.3991,-7.246245 19.150048,-9.798138 1.750948,-2.551893 0.10283,-3.367933 -1.235852,-2.755668 -1.338683,0.612266 -9.986818,5.103787 -15.134944,5.103787 z"
     style="fill:#3232cc;stroke-width:0.94339859"
     inkscape:connector-curvature="0" /></g>
</svg>